<?xml version="1.0" encoding="utf-8"?><svg xmlns="http://www.w3.org/2000/svg" xmlns:xlink="http://www.w3.org/1999/xlink">
    <symbol viewBox="0 0 448 512" id="--chevron-up">
        <path fill="currentColor" d="M240.971 130.524l194.343 194.343c9.373 9.373 9.373 24.569 0 33.941l-22.667 22.667c-9.357 9.357-24.522 9.375-33.901.04L224 227.495 69.255 381.516c-9.379 9.335-24.544 9.317-33.901-.04l-22.667-22.667c-9.373-9.373-9.373-24.569 0-33.941L207.03 130.525c9.372-9.373 24.568-9.373 33.941-.001z" />
    </symbol>
    <symbol viewBox="0 0 320 512" id="--chevron-right">
        <path fill="currentColor" d="M285.476 272.971L91.132 467.314c-9.373 9.373-24.569 9.373-33.941 0l-22.667-22.667c-9.357-9.357-9.375-24.522-.04-33.901L188.505 256 34.484 101.255c-9.335-9.379-9.317-24.544.04-33.901l22.667-22.667c9.373-9.373 24.569-9.373 33.941 0L285.475 239.03c9.373 9.372 9.373 24.568.001 33.941z" class=""></path>
    </symbol>
    <symbol viewBox="0 0 320 512" id="--chevron-left">
        <path fill="currentColor" d="M34.52 239.03L228.87 44.69c9.37-9.37 24.57-9.37 33.94 0l22.67 22.67c9.36 9.36 9.37 24.52.04 33.9L131.49 256l154.02 154.75c9.34 9.38 9.32 24.54-.04 33.9l-22.67 22.67c-9.37 9.37-24.57 9.37-33.94 0L34.52 272.97c-9.37-9.37-9.37-24.57 0-33.94z" class=""></path>
    </symbol>
    <symbol viewBox="0 0 320 512" id="--close">
        <path fill="currentColor" d="M242.72 256l100.07-100.07c12.28-12.28 12.28-32.19 0-44.48l-22.24-22.24c-12.28-12.28-32.19-12.28-44.48 0L176 189.28 75.93 89.21c-12.28-12.28-32.19-12.28-44.48 0L9.21 111.45c-12.28 12.28-12.28 32.19 0 44.48L109.28 256 9.21 356.07c-12.28 12.28-12.28 32.19 0 44.48l22.24 22.24c12.28 12.28 32.2 12.28 44.48 0L176 322.72l100.07 100.07c12.28 12.28 32.2 12.28 44.48 0l22.24-22.24c12.28-12.28 12.28-32.19 0-44.48L242.72 256z" class=""></path>
    </symbol>
    <symbol viewBox="0 0 512 512" id="--dribbble">
        <path fill="currentColor" d="M256 8C119.252 8 8 119.252 8 256s111.252 248 248 248 248-111.252 248-248S392.748 8 256 8zm163.97 114.366c29.503 36.046 47.369 81.957 47.835 131.955-6.984-1.477-77.018-15.682-147.502-6.818-5.752-14.041-11.181-26.393-18.617-41.614 78.321-31.977 113.818-77.482 118.284-83.523zM396.421 97.87c-3.81 5.427-35.697 48.286-111.021 76.519-34.712-63.776-73.185-116.168-79.04-124.008 67.176-16.193 137.966 1.27 190.061 47.489zm-230.48-33.25c5.585 7.659 43.438 60.116 78.537 122.509-99.087 26.313-186.36 25.934-195.834 25.809C62.38 147.205 106.678 92.573 165.941 64.62zM44.17 256.323c0-2.166.043-4.322.108-6.473 9.268.19 111.92 1.513 217.706-30.146 6.064 11.868 11.857 23.915 17.174 35.949-76.599 21.575-146.194 83.527-180.531 142.306C64.794 360.405 44.17 310.73 44.17 256.323zm81.807 167.113c22.127-45.233 82.178-103.622 167.579-132.756 29.74 77.283 42.039 142.053 45.189 160.638-68.112 29.013-150.015 21.053-212.768-27.882zm248.38 8.489c-2.171-12.886-13.446-74.897-41.152-151.033 66.38-10.626 124.7 6.768 131.947 9.055-9.442 58.941-43.273 109.844-90.795 141.978z" />
    </symbol>
    <symbol viewBox="0 0 320 512" id="--facebook">
        <path fill="currentColor" d="M279.14 288l14.22-92.66h-88.91v-60.13c0-25.35 12.42-50.06 52.24-50.06h40.42V6.26S260.43 0 225.36 0c-73.22 0-121.08 44.38-121.08 124.72v70.62H22.89V288h81.39v224h100.17V288z" />
    </symbol>
    <symbol viewBox="0 0 448 512" id="--instagram">
        <path fill="currentColor" d="M224.1 141c-63.6 0-114.9 51.3-114.9 114.9s51.3 114.9 114.9 114.9S339 319.5 339 255.9 287.7 141 224.1 141zm0 189.6c-41.1 0-74.7-33.5-74.7-74.7s33.5-74.7 74.7-74.7 74.7 33.5 74.7 74.7-33.6 74.7-74.7 74.7zm146.4-194.3c0 14.9-12 26.8-26.8 26.8-14.9 0-26.8-12-26.8-26.8s12-26.8 26.8-26.8 26.8 12 26.8 26.8zm76.1 27.2c-1.7-35.9-9.9-67.7-36.2-93.9-26.2-26.2-58-34.4-93.9-36.2-37-2.1-147.9-2.1-184.9 0-35.8 1.7-67.6 9.9-93.9 36.1s-34.4 58-36.2 93.9c-2.1 37-2.1 147.9 0 184.9 1.7 35.9 9.9 67.7 36.2 93.9s58 34.4 93.9 36.2c37 2.1 147.9 2.1 184.9 0 35.9-1.7 67.7-9.9 93.9-36.2 26.2-26.2 34.4-58 36.2-93.9 2.1-37 2.1-147.8 0-184.8zM398.8 388c-7.8 19.6-22.9 34.7-42.6 42.6-29.5 11.7-99.5 9-132.1 9s-102.7 2.6-132.1-9c-19.6-7.8-34.7-22.9-42.6-42.6-11.7-29.5-9-99.5-9-132.1s-2.6-102.7 9-132.1c7.8-19.6 22.9-34.7 42.6-42.6 29.5-11.7 99.5-9 132.1-9s102.7-2.6 132.1 9c19.6 7.8 34.7 22.9 42.6 42.6 11.7 29.5 9 99.5 9 132.1s2.7 102.7-9 132.1z" />
    </symbol>
    <symbol viewBox="0 0 512 512" id="--twitter">
        <path fill="currentColor" d="M459.37 151.716c.325 4.548.325 9.097.325 13.645 0 138.72-105.583 298.558-298.558 298.558-59.452 0-114.68-17.219-161.137-47.106 8.447.974 16.568 1.299 25.34 1.299 49.055 0 94.213-16.568 130.274-44.832-46.132-.975-84.792-31.188-98.112-72.772 6.498.974 12.995 1.624 19.818 1.624 9.421 0 18.843-1.3 27.614-3.573-48.081-9.747-84.143-51.98-84.143-102.985v-1.299c13.969 7.797 30.214 12.67 47.431 13.319-28.264-18.843-46.781-51.005-46.781-87.391 0-19.492 5.197-37.36 14.294-52.954 51.655 63.675 129.3 105.258 216.365 109.807-1.624-7.797-2.599-15.918-2.599-24.04 0-57.828 46.782-104.934 104.934-104.934 30.213 0 57.502 12.67 76.67 33.137 23.715-4.548 46.456-13.32 66.599-25.34-7.798 24.366-24.366 44.833-46.132 57.827 21.117-2.273 41.584-8.122 60.426-16.243-14.292 20.791-32.161 39.308-52.628 54.253z" />
    </symbol>
    <symbol viewBox="0 0 672 512" id="--web-design">
        <path fill="currentColor" d="M 664,320c-4.416,0-8-3.584-8-8l0-320 c0-4.416-3.584-8-8-8l-624,0 C 19.584-16, 16-12.416, 16-8l0,320 
		C 16,316.416, 12.416,320, 8,320S0,316.416,0,312l0-320 C0-21.232, 10.768-32, 24-32l 624,0 c 13.232,0, 24,10.768, 24,24l0,320 
		C 672,316.416, 668.416,320, 664,320zM 648,480l-624,0 C 10.768,480,0,469.232,0,456l0-96 C0,355.584, 3.584,352, 8,352l 656,0 C 668.416,352, 672,355.584, 672,360l0,96 
		C 672,469.232, 661.232,480, 648,480z M 656,368L 16,368 L 16,456 C 16,460.416, 19.584,464, 24,464l 624,0 C 652.416,464, 656,460.416, 656,456L 656,368 zM 280,32c 4.416,0, 8,3.584, 8,8l0,256 c0,4.416-3.584,8-8,8l-208,0 C 67.584,304, 64,300.416, 64,296l0-256 
		C 64,35.584, 67.584,32, 72,32L 280,32 z M 80,288l 192,0 l0-240 L 80,48 L 80,288 zM 360,240l 240,0 c 4.416,0, 8,3.584, 8,8S 604.416,256, 600,256l-240,0 c-4.416,0-8-3.584-8-8
		S 355.584,240, 360,240zM 360,160l 240,0 c 4.416,0, 8,3.584, 8,8S 604.416,176, 600,176l-240,0 c-4.416,0-8-3.584-8-8
		S 355.584,160, 360,160zM 360,80l 240,0 c 4.416,0, 8,3.584, 8,8S 604.416,96, 600,96l-240,0 c-4.416,0-8-3.584-8-8
		S 355.584,80, 360,80zM 48,416A16,16 180 1 1 80,416A16,16 180 1 1 48,416zM 112,416A16,16 180 1 1 144,416A16,16 180 1 1 112,416zM 176,416A16,16 180 1 1 208,416A16,16 180 1 1 176,416z" />
    </symbol>
    <symbol viewBox="0 0 496 512" id="--strategy">
        <path fill="currentColor" d="M 8,432C 3.584,432,0,428.416,0,424l0-272 C0,138.768, 10.768,128, 24,128l 448,0 c 13.232,0, 24,10.768, 24,24l0,272 
		C 496,428.416, 492.416,432, 488,432S 480,428.416, 480,424l0-272 c0-4.416-3.584-8-8-8l-448,0 C 19.584,144, 16,147.584, 16,152l0,272 C 16,428.416, 12.416,432, 8,432z
		M 520,480l-544,0 C-28.416,480-32,476.416-32,472S-28.416,464-24,464l 544,0 C 524.416,464, 528,467.584, 528,472S 524.416,480, 520,480zM 189.664,349.664c-2.928,2.928-7.6,3.136-10.784,0.496l-96-80c-3.392-2.832-3.856-7.872-1.024-11.28
		c 2.832-3.392, 7.856-3.856, 11.28-1.024l 90.384,75.328l 90.832-90.832C 275.904,240.784, 277.952,240, 280,240s 4.096,0.784, 5.664,2.336L 400,356.688
		L 400,296 c0-4.416, 3.584-8, 8-8s 8,3.584, 8,8l0,80 c0,1.040-0.208,2.080-0.608,3.056c-0.816,1.952-2.368,3.52-4.336,4.336
		C 410.080,383.792, 409.040,384, 408,384l-80,0 C 323.584,384, 320,380.416, 320,376S 323.584,368, 328,368l 60.688,0 L 280,259.312L 189.664,349.664zM 128.912-27.712c 2.048-3.92, 6.88-5.424, 10.8-3.376l 108.288,56.72l 108.288-56.72
		C 357.472-31.712, 358.736-32, 360-32c 2.88,0, 5.664,1.568, 7.088,4.288c 2.048,3.92, 0.544,8.752-3.376,10.8l-110.288,57.76
		C 254.992,42.304, 256,44.352, 256,46.672L 256,88 c0,4.416-3.584,8-8,8S 240,92.416, 240,88l0-41.328 c0-2.304, 1.008-4.352, 2.576-5.808
		l-110.288-57.76C 128.368-18.96, 126.864-23.792, 128.912-27.712z" />
    </symbol>
    <symbol viewBox="0 0 512 512" id="--illustration">
        <path fill="currentColor" d="M 24-32l 464,0 c 13.232,0, 24,10.768, 24,24l0,464 C 512,469.232, 501.232,480, 488,480l-464,0 C 10.768,480,0,469.232,0,456l0-464 
		C0-21.232, 10.768-32, 24-32z M 16,456C 16,460.416, 19.6,464, 24,464l 464,0 C 492.4,464, 496,460.416, 496,456l0-464 c0-4.416-3.6-8-8-8l-464,0 
		C 19.6-16, 16-12.416, 16-8L 16,456 zM 64,24.336c 0.768,0, 1.536,0.112, 2.288,0.336l 160,47.664c 1.296,0.384, 2.464,1.088, 3.408,2.032l 161.44,163.28
		c 0.368,0.384, 0.56,0.848, 0.832,1.28l 58.528,58.528c 9.712,9.712, 9.712,25.52,0,35.248L 366.72,416.448c-9.712,9.712-25.52,9.728-35.232,0
		l-59.824-59.824c-0.384-0.384-0.576-0.864-0.864-1.296L 108.912,193.424c-0.896-0.896-1.568-1.984-1.952-3.184l-50.56-155.44
		c-0.928-2.832-0.192-5.936, 1.872-8.064C 59.792,25.184, 61.872,24.336, 64,24.336z M 277.744,339.664l 16.64-16.64l-136.368-137.008l-27.632,6.272
		L 277.744,339.664z M 168,173.36l 137.712,138.336l 38.944-38.944L 204.736,136L 168,136 L 168,173.36 z M 374.16,243.248l-147.936-149.632l-9.216,31.984
		l 138.944,135.824L 374.16,243.248z M 119.888,178.256L 152,170.96L 152,128 c0-4.416, 3.584-8, 8-8l 41.984,0 l 10.128-35.2l-135.792-40.448L 119.888,178.256z
		 M 342.8,405.136c 3.488,3.472, 9.152,3.456, 12.608,0l 83.76-83.76c 3.488-3.472, 3.488-9.136,0-12.624l-53.952-53.952l-96.368,96.368
		L 342.8,405.136z" />
    </symbol>
</svg>
